<svg xmlns="http://www.w3.org/2000/svg" width="43" height="43" viewBox="0 0 43 43">
  <g id="add-24px" transform="translate(0 0)">
    <g id="Groupe_318" data-name="Groupe 318" transform="translate(0 0)">
      <rect id="Rectangle_341" data-name="Rectangle 341" width="43" height="43" transform="translate(0)" fill="none"/>
    </g>
    <g id="Groupe_320" data-name="Groupe 320" transform="translate(8.978 8.978)">
      <g id="Groupe_319" data-name="Groupe 319">
        <path id="Tracé_2423" data-name="Tracé 2423" d="M28.342,19.364H19.364v8.978a1.8,1.8,0,0,1-1.8,1.8h0a1.8,1.8,0,0,1-1.8-1.8V19.364H6.8a1.8,1.8,0,0,1-1.8-1.8H5a1.8,1.8,0,0,1,1.8-1.8h8.978V6.8a1.8,1.8,0,0,1,1.8-1.8h0a1.8,1.8,0,0,1,1.8,1.8v8.978h8.978a1.8,1.8,0,0,1,1.8,1.8h0A1.8,1.8,0,0,1,28.342,19.364Z" transform="translate(-5 -5)" fill="#7510f7"/>
      </g>
    </g>
  </g>
</svg>
