<svg id="headset-24px" xmlns="http://www.w3.org/2000/svg" width="25" height="25" viewBox="0 0 36 36">
  <g id="Groupe_313" data-name="Groupe 313">
    <rect id="Rectangle_338" data-name="Rectangle 338" width="36" height="36" fill="none"/>
  </g>
  <g id="Groupe_314" data-name="Groupe 314" transform="translate(4.5 4.5)">
    <path id="Tracé_2421" data-name="Tracé 2421" d="M3,16.5V27a3.009,3.009,0,0,0,3,3H9a3.009,3.009,0,0,0,3-3V21a3.009,3.009,0,0,0-3-3H6V16.5a10.5,10.5,0,1,1,21,0V18H24a3.009,3.009,0,0,0-3,3v6a3.009,3.009,0,0,0,3,3h3a3.009,3.009,0,0,0,3-3V16.5a13.5,13.5,0,1,0-27,0Z" transform="translate(-3 -3)" fill="#7510f7"/>
  </g>
</svg>
