<svg xmlns="http://www.w3.org/2000/svg" width="25" height="25" viewBox="0 0 36 36">
  <g id="headset_off-24px" transform="translate(-0.1 -0.1)">
    <g id="Groupe_307" data-name="Groupe 307">
      <rect id="Rectangle_335" data-name="Rectangle 335" width="36" height="36" transform="translate(0.1 0.1)" fill="none"/>
    </g>
    <g id="Groupe_309" data-name="Groupe 309" transform="translate(1.653 3.008)">
      <g id="Groupe_308" data-name="Groupe 308">
        <path id="Tracé_2419" data-name="Tracé 2419" d="M14.712,5.008A10.521,10.521,0,0,1,25.242,15.538v1.5H22.233a2.978,2.978,0,0,0-2.241,1.023l8.258,8.258V15.538A13.539,13.539,0,0,0,14.712,2,13.394,13.394,0,0,0,6.62,4.708L8.771,6.858A10.346,10.346,0,0,1,14.712,5.008Z" transform="translate(1.685 -2)" fill="#f04747"/>
        <path id="Tracé_2420" data-name="Tracé 2420" d="M31.319,30.6,3.673,2.957a1.5,1.5,0,0,0-2.121,0,1.485,1.485,0,0,0-.015,2.121L5.493,9.034a13.4,13.4,0,0,0-1.534,6.242V25.806a3.017,3.017,0,0,0,3.008,3.008H9.975a3.017,3.017,0,0,0,3.008-3.008V19.789a3.017,3.017,0,0,0-3.008-3.008H6.967v-1.5a10.635,10.635,0,0,1,.782-3.986l14.26,14.26v.256a3.017,3.017,0,0,0,3.008,3.008h.256l1.5,1.5s2.474,2.438,2.708,2.617a1.855,1.855,0,0,0,1.835-.2A1.516,1.516,0,0,0,31.319,30.6Z" transform="translate(-1.099 -1.739)" fill="#f04747"/>
      </g>
    </g>
  </g>
</svg>
