<svg id="manage_accounts-24px" xmlns="http://www.w3.org/2000/svg" width="40.666" height="40.666" viewBox="0 0 40.666 40.666">
  <g id="Groupe_267" data-name="Groupe 267">
    <path id="Tracé_2406" data-name="Tracé 2406" d="M0,0H40.666V40.666H0Z" fill="none"/>
  </g>
  <g id="Groupe_269" data-name="Groupe 269" transform="translate(3.389 6.949)">
    <g id="Groupe_268" data-name="Groupe 268" transform="translate(0 0)">
      <path id="Tracé_2407" data-name="Tracé 2407" d="M16.691,13.034c-.373-.017-.746-.034-1.135-.034a21.817,21.817,0,0,0-11.2,3.084A4.951,4.951,0,0,0,2,20.371v2.8a1.7,1.7,0,0,0,1.694,1.694h14a11.8,11.8,0,0,1-2.135-6.778A11.983,11.983,0,0,1,16.691,13.034Z" transform="translate(-2 2.079)" fill="#7510f7"/>
      <ellipse id="Ellipse_138" data-name="Ellipse 138" cx="6" cy="7" rx="6" ry="7" transform="translate(6.844 0.214)" fill="#7510f7"/>
      <path id="Tracé_2408" data-name="Tracé 2408" d="M26.6,19.465a7.351,7.351,0,0,0-.1-1.067l1.423-1.237a.852.852,0,0,0,.169-1.067l-1-1.728a.828.828,0,0,0-1-.373l-1.8.61a6.179,6.179,0,0,0-1.83-1.067L22.1,11.688a.852.852,0,0,0-.83-.678h-2a.852.852,0,0,0-.83.678l-.373,1.847a6.179,6.179,0,0,0-1.83,1.067l-1.8-.61a.84.84,0,0,0-1,.373l-1,1.728a.852.852,0,0,0,.169,1.067L14.03,18.4a7.351,7.351,0,0,0-.1,1.067,7.351,7.351,0,0,0,.1,1.067L12.607,21.77a.852.852,0,0,0-.169,1.067l1,1.728a.828.828,0,0,0,1,.373l1.8-.61a6.179,6.179,0,0,0,1.83,1.067l.373,1.847a.852.852,0,0,0,.83.678h2a.852.852,0,0,0,.83-.678l.373-1.847a6.179,6.179,0,0,0,1.83-1.067l1.8.61a.84.84,0,0,0,1-.373l1-1.728a.852.852,0,0,0-.169-1.067L26.5,20.533A7.351,7.351,0,0,0,26.6,19.465Zm-6.354,3.389a3.389,3.389,0,1,1,3.389-3.389A3.4,3.4,0,0,1,20.249,22.854Z" transform="translate(5.167 0.697)" fill="#7510f7"/>
    </g>
  </g>
</svg>
