<svg id="mic_off-24px" xmlns="http://www.w3.org/2000/svg" width="25" height="25" viewBox="0 0 34 34">
  <g id="Groupe_305" data-name="Groupe 305">
    <rect id="Rectangle_334" data-name="Rectangle 334" width="34" height="34" fill="none"/>
  </g>
  <g id="Groupe_306" data-name="Groupe 306" transform="translate(2.561 2.833)">
    <path id="Tracé_2418" data-name="Tracé 2418" d="M24.619,14.75h0a1.44,1.44,0,0,0-1.4,1.19,7.033,7.033,0,0,1-.864,2.337l2.054,2.054a9.857,9.857,0,0,0,1.615-3.981A1.393,1.393,0,0,0,24.619,14.75ZM2.222,4.139h0a1.411,1.411,0,0,0,0,2L17.734,21.649a5.784,5.784,0,0,1-1.487.184,7.093,7.093,0,0,1-6.984-5.879,1.414,1.414,0,0,0-1.388-1.2h0a1.423,1.423,0,0,0-1.417,1.615,9.922,9.922,0,0,0,8.372,8.188V27.5a1.421,1.421,0,0,0,1.417,1.417h0A1.421,1.421,0,0,0,17.664,27.5V24.553a9.89,9.89,0,0,0,2.323-.638l6.276,6.276a1.411,1.411,0,0,0,2,0h0a1.411,1.411,0,0,0,0-2L4.219,4.139A1.411,1.411,0,0,0,2.222,4.139ZM20.5,14.75V6.25a4.25,4.25,0,0,0-8.5,0V7.907l8.231,8.231A4.1,4.1,0,0,0,20.5,14.75Z" transform="translate(-1.807 -2)" fill="#f04747"/>
  </g>
</svg>
