<svg xmlns="http://www.w3.org/2000/svg" width="25" height="25" viewBox="0 0 34 34">
  <g id="mic-24px" transform="translate(-0.158 -0.478)">
    <g id="Groupe_301" data-name="Groupe 301" transform="translate(0.158 0.158)">
      <rect id="Rectangle_333" data-name="Rectangle 333" width="34" height="34" transform="translate(0 0.32)" fill="none"/>
    </g>
    <g id="Groupe_304" data-name="Groupe 304" transform="translate(7.292 2.867)">
      <g id="Groupe_303" data-name="Groupe 303">
        <g id="Groupe_302" data-name="Groupe 302">
          <path id="Tracé_2416" data-name="Tracé 2416" d="M13.311,19.242a4.3,4.3,0,0,0,4.311-4.311V6.311A4.311,4.311,0,1,0,9,6.311v8.621A4.3,4.3,0,0,0,13.311,19.242Z" transform="translate(-3.366 -2)" fill="#7510f7"/>
          <path id="Tracé_2417" data-name="Tracé 2417" d="M23.515,11a1.434,1.434,0,0,0-1.408,1.221,7.189,7.189,0,0,1-14.167,0A1.434,1.434,0,0,0,6.532,11h0a1.443,1.443,0,0,0-1.437,1.638,10.063,10.063,0,0,0,8.492,8.3v2.989a1.441,1.441,0,0,0,1.437,1.437h0a1.441,1.441,0,0,0,1.437-1.437V20.943a10.063,10.063,0,0,0,8.492-8.3A1.435,1.435,0,0,0,23.515,11Z" transform="translate(-5.079 1.932)" fill="#7510f7"/>
        </g>
      </g>
    </g>
  </g>
</svg>
