<svg xmlns="http://www.w3.org/2000/svg" width="35" height="36" viewBox="0 0 35 36">
  <g id="settings-24px" transform="translate(-0.344 -0.143)">
    <rect id="Rectangle_330" data-name="Rectangle 330" width="35" height="36" transform="translate(0.344 0.143)" fill="none"/>
    <path id="Tracé_2410" data-name="Tracé 2410" d="M27.888,16.87c0-.342-.015-.669-.045-1.011l2.766-2.1A1.5,1.5,0,0,0,31,11.829l-2.781-4.8A1.467,1.467,0,0,0,26.356,6.4l-3.2,1.353a11.282,11.282,0,0,0-1.74-1.011l-.431-3.435A1.491,1.491,0,0,0,19.516,2H13.97a1.5,1.5,0,0,0-1.487,1.309l-.431,3.435a11.282,11.282,0,0,0-1.74,1.011L7.114,6.4a1.467,1.467,0,0,0-1.859.625L2.475,11.844a1.5,1.5,0,0,0,.387,1.933l2.766,2.1c-.03.327-.045.654-.045,1s.015.669.045,1.011l-2.766,2.1a1.5,1.5,0,0,0-.387,1.933l2.781,4.8a1.467,1.467,0,0,0,1.859.625l3.2-1.353A11.281,11.281,0,0,0,12.051,27l.431,3.435a1.491,1.491,0,0,0,1.472,1.309H19.5a1.491,1.491,0,0,0,1.472-1.309L21.4,27a11.281,11.281,0,0,0,1.74-1.011l3.2,1.353a1.467,1.467,0,0,0,1.859-.625l2.781-4.8a1.5,1.5,0,0,0-.387-1.933l-2.766-2.1A7.688,7.688,0,0,0,27.888,16.87Zm-11.093,5.2a5.2,5.2,0,1,1,5.2-5.2A5.21,5.21,0,0,1,16.795,22.075Z" transform="translate(1.39 1.419)" fill="#7510f7"/>
  </g>
</svg>
